<svg xmlns="http://www.w3.org/2000/svg" version="1.1" xmlns:xlink="http://www.w3.org/1999/xlink" xmlns:svgjs="http://svgjs.dev/svgjs" width="100%" height="100%" viewBox="0 0 1000 600"><rect width="1000" height="600" x="0" y="0" fill="#1d1b28"/><g><circle r="166.66666666666666" cx="506.9968058268229" cy="529.2190732021505" fill="#304156" transform="matrix(0.367290354862024,0,0,0.367290354862024,0,105.62293288571836)"/><path d="M501.0908455919265 592.5985732921292L501.0908455919265 592.5985732921292Q501.0908455919265 604.2190616790672 478.4513999816097 604.2190616790672L478.4513999816097 604.2190616790672Q473.5297813706713 604.2190616790672 472.6548269509489 599.1880737656634Q471.7525302056102 594.184428177876 471.7525302056102 586.692630959003Q471.7525302056102 579.2281760657464 472.84622323026315 570.6426858222205Q473.93991625491617 562.0845379043109 475.6898250943609 552.0499044031197L475.6898250943609 552.0499044031197Q479.0529311451689 532.7462225179945 485.25963906007456 510.40754248945734Q491.43900464936394 488.0688624609201 497.56368558742065 475.87418523603935L497.56368558742065 475.87418523603935Q485.1502697576093 476.63977035329646 472.9555925327285 480.3036419858839Q460.73357298223135 483.9401712928551 455.62055809197864 485.41665687613664Q450.507543201726 486.8931424594182 447.14443715091807 486.8931424594182Q443.8086734257264 486.8931424594182 443.8086734257264 484.7330987357285L443.8086734257264 484.7330987357285Q443.8086734257264 482.162920127794 447.7459683144772 477.1319322143903Q451.6832632032279 472.12828662660286 458.9563218171703 467.0152717363502L458.9563218171703 467.0152717363502Q477.467076259422 454.41045962722455 500.1065218697388 454.21906334791026L500.1065218697388 454.21906334791026L564.8804912548119 454.7932521858531Q570.1849024243788 454.7932521858531 570.1849024243788 458.9219433539181L570.1849024243788 458.9219433539181Q570.1849024243788 460.1250056810364 568.6263898642484 463.1600038244484Q567.0405349785015 466.2223442934768 565.8648149769995 469.74950429798264L565.8648149769995 469.74950429798264Q563.2946363690651 476.85850895822705 555.1466233354004 476.85850895822705Q546.9712679761192 476.85850895822705 516.2658363089866 475.65544663110876L516.2658363089866 475.65544663110876Q515.4729088661132 484.3229638514837 513.094126537493 497.8027303803317Q510.7426865344891 511.3098392347961 507.9811116472403 527.2504150691134L507.9811116472403 527.2504150691134Q501.2822418712408 567.9904802374369 501.0908455919265 592.5985732921292Z " fill="#ffffff" transform="matrix(0.367290354862024,0,0,0.367290354862024,0,105.62293288571836)"/><path d="M875.2473794422089 557.7807770345032L875.2473794422089 557.7807770345032Q878.0015447064133 557.7807770345032 878.0015447064133 564.0286519394114L878.0015447064133 564.0286519394114Q878.0015447064133 577.0599338839341 865.8883178499586 589.2751668612852Q853.7495894632798 601.4648983084123 836.3065427899851 601.6689105502053L836.3065427899851 601.6689105502053Q824.0148052219616 601.6689105502053 807.8468350598727 591.9273260045932L807.8468350598727 591.9273260045932Q796.2946418683485 604.2190635726167 779.0301059066226 604.2190635726167L779.0301059066226 604.2190635726167Q767.6564234266673 604.2190635726167 762.3266036098273 598.5322223326391Q756.9967837929871 592.8453810926615 756.9967837929871 583.4863195004111Q756.9967837929871 574.1272579081609 763.8821969534982 569.4349763469238Q770.7676101140094 564.7426947856866 781.4272497476894 564.7426947856866L781.4272497476894 564.7426947856866Q787.1140909876672 564.7426947856866 792.0613878511454 565.3037284506171L792.0613878511454 565.3037284506171Q792.0613878511454 542.9133849138441 797.0341862448479 521.5941056464839L797.0341862448479 521.5941056464839Q790.9648220515085 518.4829189591418 786.655063443633 514.6321878953004Q782.3453048357576 510.781456831459 782.3453048357576 508.562823701961L782.3453048357576 508.562823701961Q782.3453048357576 502.69747175041454 784.895457858169 502.69747175041454L784.895457858169 502.69747175041454Q788.5676782104417 502.69747175041454 792.5204153951795 504.81409875901613Q796.4731525799173 506.90522423739355 801.063428020258 508.0272915672546L801.063428020258 508.0272915672546Q812.4371105002134 475.1558191083703 832.277301014575 465.5927452743271L832.277301014575 465.5927452743271Q839.2647202959824 462.30304787541627 846.9661824236653 462.30304787541627L846.9661824236653 462.30304787541627Q875.9869238187082 462.30304787541627 875.9869238187082 486.7080122998944L875.9869238187082 486.7080122998944Q875.9869238187082 500.6828508627095 865.5057948965969 510.781456831459L865.5057948965969 510.781456831459Q850.9954241990754 524.7307938640499 821.439150669326 525.4703382405494L821.439150669326 525.4703382405494Q819.4245297816209 540.8732624959148 819.4245297816209 561.9885295214822L819.4245297816209 561.9885295214822Q819.4245297816209 567.1398386267533 818.1494532704152 573.5662242432304L818.1494532704152 573.5662242432304Q824.5758388868921 576.8814231723654 830.6197015500074 579.6355884365698Q836.6890657433469 582.3897537007742 845.4870936706666 582.3897537007742L845.4870936706666 582.3897537007742Q850.0773691110072 582.3897537007742 854.5911399606756 578.5135211067087Q859.0794092801199 574.6627900428673 863.0321464648578 570.0725146025266Q866.9848836495955 565.4822391621859 870.0960703369376 561.6315080983445Q873.2327585545038 557.7807770345032 875.2473794422089 557.7807770345032ZM846.6091610005276 480.28162668341736L846.6091610005276 480.28162668341736Q831.180735214938 480.28162668341736 824.1933159335305 509.659389501598L824.1933159335305 509.659389501598Q837.4286101198461 508.562823701961 846.5071548796311 502.2384442063805Q855.5856996394161 495.88856318057583 855.5856996394161 489.46217756409885L855.5856996394161 489.46217756409885Q855.5856996394161 480.28162668341736 846.6091610005276 480.28162668341736ZM774.7968518894195 584.7613960116169L774.7968518894195 584.7613960116169Q775.0008641312124 589.9127051168882 781.9627818823958 589.9127051168882Q788.9502011638034 589.9127051168882 790.7863113399396 581.8287200358436L790.7863113399396 581.8287200358436Q785.6350022346685 579.253065483208 782.3453048357576 579.253065483208L782.3453048357576 579.253065483208Q775.0008641312124 579.253065483208 774.7968518894195 584.7613960116169ZM982.098791081251 557.7807770345032L982.098791081251 557.7807770345032Q985.413990010386 557.7807770345032 985.413990010386 566.2217835386853L985.413990010386 566.2217835386853Q985.413990010386 570.812058979026 981.5632589465447 577.3404507163993Q977.6870263524792 583.8433409235488 971.5411575684674 589.2751668612852Q965.3952887844557 594.6814912687977 957.8723373683417 598.1752009095014Q950.3493859522277 601.6689105502053 943.1834559592514 601.6689105502053L943.1834559592514 601.6689105502053Q933.4418714136394 601.6689105502053 930.1521740147286 584.582885300048L930.1521740147286 584.582885300048Q925.357886332595 592.4883596695238 917.6564242049122 597.5376626538986Q909.9549620772295 602.5869656382733 897.000184723379 602.5869656382733Q884.0454073695286 602.5869656382733 876.165434530277 594.502980557229Q868.2599601608013 586.4189954761844 868.4384708723701 574.8413007544361L868.4384708723701 574.8413007544361Q868.4384708723701 543.6274277601192 889.1967164747998 525.6488489521182L889.1967164747998 525.6488489521182Q898.0202459323436 518.1258975360042 905.6197019391299 515.7287536949374Q913.2446594761403 513.3316098538705 921.6856659803224 513.3316098538705Q930.1521740147286 513.3316098538705 935.4564923013446 516.2897873598679L935.4564923013446 516.2897873598679Q938.0321468539802 510.95996754302786 941.3473457831151 510.95996754302786L941.3473457831151 510.95996754302786Q947.7737313995922 510.95996754302786 953.5625787604663 516.5448026621091Q959.3259245911163 522.1551393114144 959.3259245911163 527.1024361748928L959.3259245911163 527.1024361748928Q956.7757715687048 533.1718003682321 951.8029731750023 541.6128068724142L951.8029731750023 541.6128068724142Q950.3493859522277 550.0538133765963 950.3493859522277 565.3037284506171Q950.3493859522277 580.5536435246379 954.2001170160692 580.5536435246379L954.2001170160692 580.5536435246379Q958.9689031679786 580.5536435246379 977.3300049293416 561.4529973867757L977.3300049293416 561.4529973867757Q980.6452038584765 557.7807770345032 982.098791081251 557.7807770345032ZM895.444591379708 568.7974380913208L895.444591379708 568.7974380913208Q895.444591379708 582.9252858354806 905.9002187715952 582.9252858354806L905.9002187715952 582.9252858354806Q917.0953905399817 582.7467751239119 924.4398312445269 570.9905696905948L924.4398312445269 570.9905696905948Q927.0154857971625 566.9613279151846 928.67308526173 561.070474433414L928.67308526173 561.070474433414Q928.67308526173 540.5162410727772 932.3453056140025 525.8273596636869L932.3453056140025 525.8273596636869Q917.4779134933434 528.7600356394602 906.4612524365257 540.1592196496397Q895.444591379708 551.532902129595 895.444591379708 568.7974380913208ZM1003.0355473952495 570.2510253140954L1003.0355473952495 570.2510253140954L1004.1321131948864 592.6668703810926Q1004.1321131948864 597.0786351098645 999.5418377545458 600.5468432203442Q994.951562314205 604.0405528610479 987.0715894749535 604.0405528610479L987.0715894749535 604.0405528610479Q982.4813140346128 604.0405528610479 980.7217084491489 599.2717667091383Q978.987604393909 594.502980557229 978.987604393909 585.3224296765475L978.987604393909 585.3224296765475Q978.987604393909 566.0432728271164 980.9002191607176 555.1031163609711Q982.8383354577504 544.1884614250498 988.525176697728 532.9932896566634L988.525176697728 532.9932896566634Q980.084170193546 524.9093045756188 980.084170193546 519.0439526240723L980.084170193546 519.0439526240723Q980.084170193546 506.7267135258248 993.2939628496375 506.7267135258248L993.2939628496375 506.7267135258248Q1000.1028714194763 506.7267135258248 1005.2286789945234 513.8926435188012L1005.2286789945234 513.8926435188012Q1008.900899346796 518.8399403822793 1010.5584988113635 525.4703382405494L1010.5584988113635 525.4703382405494Q1013.1341533639991 526.3883933286174 1016.9848844278405 526.3883933286174L1016.9848844278405 526.3883933286174Q1022.3147042446806 526.3883933286174 1029.302123526088 522.8946836879137L1029.302123526088 522.8946836879137L1034.0709096779976 520.4975398468468Q1036.2640412772714 519.40097404721 1037.921640741839 519.40097404721L1037.921640741839 519.40097404721Q1043.2514605586791 519.40097404721 1048.581280375519 535.0079105443683L1048.581280375519 535.0079105443683Q1046.9236809109516 542.1738405373446 1044.985564613919 548.7787368653906Q1043.0729498471103 555.3836331934363 1040.4972952944745 564.7426947856866Q1037.921640741839 574.1272579081609 1037.8196346209425 577.3404507163993Q1037.74313003027 580.5536435246379 1039.7577509179753 580.5536435246379L1039.7577509179753 580.5536435246379Q1042.5119161821797 580.5536435246379 1046.5411579575898 577.0599338839341Q1050.5959012632243 573.5662242432304 1054.6251430386344 569.4349763469238Q1058.6798863442687 565.3037284506171 1062.071589864076 561.8100188099133Q1065.4632933838834 558.3163091692095 1066.7383698950891 558.3163091692095L1066.7383698950891 558.3163091692095Q1069.3140244477247 558.3163091692095 1069.3140244477247 564.5641840741177L1069.3140244477247 564.5641840741177Q1069.3140244477247 577.238444595503 1058.2208588002345 589.5301821635264Q1047.1021916225204 601.8474212617741 1032.7703316365678 601.6689105502053L1032.7703316365678 601.6689105502053Q1024.3293251323857 601.6689105502053 1020.1215726454067 594.8600019803664Q1015.8883186282035 588.0765949407519 1015.7098079166348 578.33501039514L1015.7098079166348 578.33501039514Q1015.7098079166348 559.0558535457089 1024.3293251323857 541.791317583983L1024.3293251323857 541.791317583983Q1020.3000833569754 543.4489170485505 1015.2507803726007 543.4489170485505Q1010.201477388226 543.4489170485505 1007.9828442587279 543.0918956254129L1007.9828442587279 543.0918956254129Q1006.3507463243845 550.0538133765963 1004.693146859817 557.1432387789002Q1003.0355473952495 564.2071626509801 1003.0355473952495 570.2510253140954ZM1172.875738687856 557.7807770345032L1172.875738687856 557.7807770345032Q1176.190937616991 557.7807770345032 1176.190937616991 566.2217835386853L1176.190937616991 566.2217835386853Q1176.190937616991 570.812058979026 1172.3147050229254 577.3404507163993Q1168.4639739590841 583.8433409235488 1162.3181051750723 589.2751668612852Q1156.1722363910608 594.6814912687977 1148.6492849749466 598.1752009095014Q1141.1008320286087 601.6689105502053 1133.9604035658563 601.6689105502053L1133.9604035658563 601.6689105502053Q1124.2188190202444 601.6689105502053 1120.9036200911094 584.582885300048L1120.9036200911094 584.582885300048Q1116.1348339392 592.4883596695238 1108.4333718115172 597.5376626538986Q1100.7064081536103 602.5869656382733 1087.777132329984 602.5869656382733Q1074.8223549761335 602.5869656382733 1066.9423821368819 594.502980557229Q1059.0369077674063 586.4189954761844 1059.2154184789752 574.8413007544361L1059.2154184789752 574.8413007544361Q1059.2154184789752 543.6274277601192 1079.9736640814049 525.6488489521182L1079.9736640814049 525.6488489521182Q1088.7716920087244 518.1258975360042 1096.3966495457348 515.7287536949374Q1104.0216070827453 513.3316098538705 1112.4626135869275 513.3316098538705Q1120.9036200911094 513.3316098538705 1126.2334399079496 516.2897873598679L1126.2334399079496 516.2897873598679Q1128.8090944605851 510.95996754302786 1132.1242933897202 510.95996754302786L1132.1242933897202 510.95996754302786Q1138.550679006197 510.95996754302786 1144.314024836847 516.5448026621091Q1150.1028721977214 522.1551393114144 1150.1028721977214 527.1024361748928L1150.1028721977214 527.1024361748928Q1147.5272176450858 533.1718003682321 1142.5799207816071 541.6128068724142L1142.5799207816071 541.6128068724142Q1141.1008320286087 550.0538133765963 1141.1008320286087 565.3037284506171Q1141.1008320286087 580.5536435246379 1144.977064622674 580.5536435246379L1144.977064622674 580.5536435246379Q1149.7458507745837 580.5536435246379 1168.1069525359464 561.4529973867757L1168.1069525359464 561.4529973867757Q1171.3966499348574 557.7807770345032 1172.875738687856 557.7807770345032ZM1086.221538986313 568.7974380913208L1086.221538986313 568.7974380913208Q1086.221538986313 582.9252858354806 1096.6771663782001 582.9252858354806L1096.6771663782001 582.9252858354806Q1107.8723381465866 582.7467751239119 1115.2167788511317 570.9905696905948L1115.2167788511317 570.9905696905948Q1117.7924334037675 566.9613279151846 1119.4500328683348 561.070474433414L1119.4500328683348 561.070474433414Q1119.4500328683348 540.5162410727772 1123.1222532206075 525.8273596636869L1123.1222532206075 525.8273596636869Q1108.2548610999484 528.7600356394602 1097.2382000431307 540.1592196496397Q1086.221538986313 551.532902129595 1086.221538986313 568.7974380913208ZM1196.0056266011284 520.319029135278L1196.0056266011284 520.319029135278Q1196.0056266011284 532.6107667033016 1191.5938618723565 548.2177032004599L1191.5938618723565 548.2177032004599Q1191.9763848257182 554.1085566822305 1191.9763848257182 559.6168872106394Q1191.9763848257182 565.1252177390484 1192.7159292022175 569.1544595144585L1192.7159292022175 569.1544595144585Q1195.4700944664219 576.4989002190036 1199.677846953401 578.1564996835712L1199.677846953401 578.1564996835712Q1203.3500673056735 578.1564996835712 1207.7618320344454 571.8321201879905Q1212.1735967632173 565.4822391621859 1216.763872203558 556.6842112348662L1216.763872203558 556.6842112348662Q1214.54523907406 548.2177032004599 1214.54523907406 540.694751784346L1214.54523907406 540.694751784346Q1214.54523907406 527.4849591282544 1218.5999823796942 521.415594934915L1218.5999823796942 521.415594934915Q1223.5472792431726 513.7141328072323 1233.6458852119222 513.7141328072323Q1243.744491180672 513.7141328072323 1247.0596901098068 521.415594934915L1247.0596901098068 521.415594934915Q1248.3347666210125 524.3482709106883 1248.3347666210125 528.0204912629608L1248.3347666210125 528.0204912629608Q1248.3347666210125 534.6508891212308 1245.0450692221018 541.5363022817419Q1241.7298702929668 548.4217154422529 1234.3854295884216 559.6168872106394L1234.3854295884216 559.6168872106394Q1237.7006285175567 569.3329702260273 1244.3055248456023 569.3329702260273L1244.3055248456023 569.3329702260273Q1252.389509926647 569.1544595144585 1258.2548618781934 563.6461289860497L1258.2548618781934 563.6461289860497Q1260.4479934774672 561.4529973867757 1262.0290883513624 559.7953979222082Q1263.5846816950334 558.1377984576408 1265.242281159601 558.1377984576408L1265.242281159601 558.1377984576408Q1267.7924341820124 558.1377984576408 1267.7924341820124 564.2071626509801L1267.7924341820124 564.2071626509801Q1267.7924341820124 575.5808451309355 1261.2895439748631 580.8086588268791Q1254.7611522374896 586.0619740530467 1244.8410569803088 586.0619740530467L1244.8410569803088 586.0619740530467Q1231.809775035786 586.0619740530467 1224.1083129081032 574.6627900428673L1224.1083129081032 574.6627900428673Q1202.6105229291743 602.5869656382733 1188.1256537618767 602.5869656382733L1188.1256537618767 602.5869656382733Q1182.413310991675 602.5869656382733 1176.9049804632662 586.4189954761844Q1171.3966499348574 570.2510253140954 1168.4639739590841 542.7093726720511L1168.4639739590841 542.7093726720511Q1166.27084235981 525.2663259987564 1171.03962851172 517.7433745826424L1171.03962851172 517.7433745826424Q1175.0688702871298 511.878022631096 1186.825075720447 511.878022631096L1186.825075720447 511.878022631096Q1191.236840449219 511.878022631096 1193.6339842902858 514.5301817744039Q1196.0056266011284 517.2078424479361 1196.0056266011284 520.319029135278ZM1302.3215061054643 581.0891756593444L1302.3215061054643 581.0891756593444Q1316.653366091417 581.0891756593444 1330.0416694590772 569.715493179389L1330.0416694590772 569.715493179389Q1335.0144678527797 565.4822391621859 1338.1256545401218 561.9120249308098Q1341.2368412274636 558.3163091692095 1342.8944406920314 558.3163091692095L1342.8944406920314 558.3163091692095Q1345.470095244667 558.3163091692095 1345.470095244667 563.4676182744809Q1345.470095244667 568.618927379752 1342.7159299804625 574.9433068753326Q1339.9617647162581 581.2676863709132 1333.535379099781 587.3370505642525L1333.535379099781 587.3370505642525Q1317.7499318910538 602.2044426849116 1290.2082792490096 602.2044426849116L1290.2082792490096 602.2044426849116Q1268.3534678469427 602.2044426849116 1260.4479934774672 586.4189954761844L1260.4479934774672 586.4189954761844Q1257.6938282132628 580.9106649477756 1257.6938282132628 570.6335482674572Q1257.6938282132628 560.3564315871388 1261.748571518897 549.2377644094246Q1265.7778132943072 538.1190972317104 1272.4847157432496 530.0606136808901Q1279.191618192192 521.9766285998455 1287.9896461195117 517.4628577501771Q1296.8131755770555 512.9745884307329 1306.8097754249084 512.9745884307329Q1316.8318768029858 512.9745884307329 1322.2382012104981 517.9218852942113Q1327.6700271482346 522.8946836879137 1327.6700271482346 530.7746565271652Q1327.6700271482346 538.680130896641 1323.7172899634966 543.7294338810157Q1319.764552778759 548.7787368653906 1313.5166778738508 552.1704403851978Q1307.2688029689425 555.5621439050051 1299.6693469621564 558.2398045785371Q1292.0443894251457 560.8919637218453 1284.6999487206008 564.2071626509801L1284.6999487206008 564.2071626509801L1284.6999487206008 568.7974380913208Q1284.8784594321696 575.4023344193668 1290.2082792490096 578.1564996835712Q1295.5380990658496 580.9106649477756 1302.3215061054643 581.0891756593444ZM1299.2103194181223 529.3210693043907L1299.2103194181223 529.3210693043907Q1289.647245584079 529.3210693043907 1285.9750252318063 551.532902129595L1285.9750252318063 551.532902129595Q1289.8257562956478 548.9572475769594 1293.2429613456793 546.9426266892542Q1296.6346648654867 544.9280058015491 1299.2103194181223 543.0918956254129L1299.2103194181223 543.0918956254129Q1304.718649946531 539.0371523197786 1304.8971606581 533.9113447447314L1304.8971606581 533.9113447447314Q1304.8971606581 529.3210693043907 1299.2103194181223 529.3210693043907ZM1377.2450019039143 601.6689105502053L1377.2450019039143 601.6689105502053Q1350.9784257730757 601.8474212617741 1341.4408534692568 582.0072307474125L1341.4408534692568 582.0072307474125Q1338.1256545401218 575.0453129962291 1338.1256545401218 564.4876794834454Q1338.1256545401218 553.9300459706617 1339.9617647162581 541.9953298257759L1339.9617647162581 541.9953298257759Q1343.6339850685306 518.1258975360042 1354.0896124604178 497.92868559850507L1354.0896124604178 497.92868559850507Q1359.4194322772578 487.62606738796256 1366.0243286053037 480.28162668341736L1366.0243286053037 480.28162668341736Q1380.5346993028252 464.13915805155256 1398.3602689294817 464.31766876312133L1398.3602689294817 464.31766876312133Q1406.240241768733 464.31766876312133 1410.7540126184015 468.62742737099677Q1415.2422819378457 472.93718597887226 1415.2422819378457 481.0211710599167Q1415.2422819378457 489.10515614096124 1410.4734957859364 497.26564581267803Q1405.7047096340266 505.451637014619 1398.2582628085852 514.1731603512663Q1390.8118159831436 522.8946836879137 1381.8352773442552 532.4322559917327Q1372.8332371751426 541.9953298257759 1364.1882184291674 553.1905015941625L1364.1882184291674 553.1905015941625L1364.1882184291674 560.5349422987076Q1364.1882184291674 570.812058979026 1368.5999831579393 575.5808451309355Q1373.0117478867112 580.3496312828449 1378.877099838258 580.3496312828449L1378.877099838258 580.3496312828449Q1394.688048577209 580.3496312828449 1406.8012754336637 564.7426947856866L1406.8012754336637 564.7426947856866Q1411.7485722971421 558.3163091692095 1414.3242268497777 558.3163091692095L1414.3242268497777 558.3163091692095Q1416.8998814024135 558.3163091692095 1416.8998814024135 564.5641840741177Q1416.8998814024135 570.812058979026 1413.508177882606 577.3404507163993Q1410.0909728325746 583.8433409235488 1404.5826423041658 589.2751668612852Q1399.074311775757 594.6814912687977 1391.9338833130046 598.1752009095014Q1384.7679533200283 601.6689105502053 1377.2450019039143 601.6689105502053ZM1387.139595630871 503.05449317355215Q1391.0158282249365 498.2857070216426 1393.2089598242103 494.43497595780127Q1395.4020914234843 490.5842448939599 1395.4020914234843 486.45299699765326Q1395.4020914234843 482.3217491013466 1392.469415447711 482.3217491013466L1392.469415447711 482.3217491013466Q1386.043029831234 482.3217491013466 1378.239561582655 495.5315417574382Q1370.4360933340756 508.74133441352984 1366.5853622702343 530.2391243924588L1366.5853622702343 530.2391243924588Q1372.8332371751426 520.6760505584157 1378.061050871086 514.2496649419387Q1383.2888645670296 507.8232793254617 1387.139595630871 503.05449317355215ZM1408.9944070329375 549.6967919534586L1408.9944070329375 549.6967919534586Q1408.9944070329375 534.8293998327995 1434.1644173641394 534.8293998327995L1434.1644173641394 534.8293998327995L1463.1596572289582 535.364931967506Q1465.378290358456 535.364931967506 1465.378290358456 537.583565097004L1465.378290358456 537.583565097004Q1465.378290358456 541.4342961608454 1460.7880149181153 546.8406205683577Q1456.1977394777746 552.2724465060943 1453.0610512602084 552.2724465060943L1453.0610512602084 552.2724465060943L1436.7145703865508 550.9718684646645L1410.0909728325746 551.3543914180261Q1408.9944070329375 551.3543914180261 1408.9944070329375 549.6967919534586ZM1484.7339517985592 486.91202454168734Q1482.6173247899578 488.5441224760307 1480.424193190684 490.02321122902936Q1478.2310615914103 491.50229998202803 1475.3748902063094 491.50229998202803Q1472.5187188212083 491.50229998202803 1472.5187188212083 486.5295015883256L1472.5187188212083 486.5295015883256Q1472.5187188212083 476.430895619576 1481.9032819436827 470.004510003099L1481.9032819436827 470.004510003099Q1490.879820582571 463.3996136750532 1503.3755703923875 463.3996136750532Q1515.871320202204 463.3996136750532 1522.0936935768882 473.6767303553716L1522.0936935768882 473.6767303553716Q1526.8879812590217 481.19968177148553 1526.8879812590217 490.6607494846322Q1526.8879812590217 500.12181719777897 1524.8478588410924 509.0218512459951Q1522.8332379533872 517.9218852942113 1520.538100233217 527.3064484166856Q1518.2429625130467 536.6655100089358 1516.2283416253415 546.3050884336515Q1514.2137207376363 555.9446668583669 1514.2137207376363 562.0905356423787Q1514.2137207376363 568.2364044263903 1514.7492528723428 570.2510253140954L1514.7492528723428 570.2510253140954Q1517.3249074249784 578.33501039514 1528.7240914351578 578.33501039514L1528.7240914351578 578.33501039514Q1537.343608650909 578.33501039514 1544.8665600670229 573.3877135316616L1544.8665600670229 573.3877135316616Q1565.6248056694526 559.7953979222082 1571.3116469094302 519.5794847587788L1571.3116469094302 519.5794847587788Q1556.444254788771 518.6614296707106 1548.462275828623 510.11841704563204Q1540.4547953382507 501.6009059507776 1540.4547953382507 487.0905352532561L1540.4547953382507 487.0905352532561Q1540.4547953382507 476.60940633114484 1547.2637039080896 469.4689778683926Q1554.0471109477041 462.30304787541627 1565.8033163810212 462.2010417545198Q1577.5595218143385 462.12453716384744 1583.4248737658847 470.38703295646076Q1589.3157272476556 478.649528749074 1589.3157272476556 492.7773764932338L1589.3157272476556 492.7773764932338L1589.3157272476556 497.0106305104369Q1589.3157272476556 499.2037621097108 1589.1117150058624 501.21838299741586L1589.1117150058624 501.21838299741586Q1592.2484032234288 499.7647957746413 1594.4415348227026 498.1837009007462Q1596.6601679522005 496.62810755707517 1598.8532995514743 496.62810755707517L1598.8532995514743 496.62810755707517Q1602.525519903747 496.62810755707517 1602.525519903747 499.7647957746413L1602.525519903747 499.7647957746413Q1602.525519903747 505.8086584377566 1598.7512934305778 510.322429287425Q1595.002568487633 514.8106986068692 1588.576182871156 517.2078424479361L1588.576182871156 517.2078424479361Q1586.7400726950198 540.8732624959148 1582.6088247987132 553.3690123057313Q1578.4775769024066 565.8647621155476 1573.7852953411693 574.1272579081609Q1569.1185153101562 582.3897537007742 1561.774074605611 588.6121270754584L1561.774074605611 588.6121270754584Q1546.3456488200213 601.6689105502053 1521.9151828653194 601.6689105502053L1521.9151828653194 601.6689105502053Q1505.5687019916613 601.6689105502053 1495.929123566946 593.4829193482642Q1486.2895451422305 585.3224296765475 1486.2895451422305 567.7008722916839L1486.2895451422305 567.7008722916839Q1486.2895451422305 563.4676182744809 1490.9818267034675 545.3870333455832Q1495.6741082647047 527.3064484166856 1498.4282735289091 515.6267475740409Q1501.1824387931138 503.9725482616203 1501.1824387931138 497.18914122200573L1501.1824387931138 497.18914122200573Q1501.1824387931138 482.3217491013466 1493.6339858467754 482.3217491013466L1493.6339858467754 482.3217491013466Q1491.083832824364 482.3217491013466 1488.9672058157626 483.7753363241212Q1486.850578807161 485.25442507711983 1484.7339517985592 486.91202454168734ZM1572.9692463739975 500.6828508627095L1572.9692463739975 500.6828508627095Q1573.3262677971352 495.5315417574382 1573.3262677971352 490.20172194059813L1573.3262677971352 490.20172194059813Q1573.3262677971352 478.2670057957123 1567.8179372687264 478.2670057957123L1567.8179372687264 478.2670057957123Q1563.9672062048849 478.0884950841435 1563.9672062048849 484.3363699890517L1563.9672062048849 484.3363699890517Q1563.9672062048849 495.71005246900705 1572.9692463739975 500.6828508627095ZM1655.9512257232682 526.9239254633239L1655.9512257232682 523.634228064413Q1655.9512257232682 511.31698896616547 1675.0518718611304 511.31698896616547L1675.0518718611304 511.31698896616547Q1679.8206580130397 511.31698896616547 1681.0192299335733 514.4536771837315Q1682.2178018541065 517.5648638710736 1682.2178018541065 523.9912494875507L1682.2178018541065 523.9912494875507Q1682.2178018541065 532.9932896566634 1678.1630585484722 551.8899235527326Q1674.1338167730623 570.812058979026 1674.312327484631 577.4169553070717L1674.312327484631 577.4169553070717Q1674.312327484631 580.5536435246379 1676.3269483723361 580.5536435246379L1676.3269483723361 580.5536435246379Q1679.0811136365405 580.5536435246379 1683.1358569421745 577.0599338839341Q1687.165098717585 573.5662242432304 1691.2198420232194 569.4349763469238Q1695.2490837986293 565.3037284506171 1698.6407873184369 561.8100188099133Q1702.032490838244 558.3163091692095 1703.333068879674 558.3163091692095L1703.333068879674 558.3163091692095Q1705.9087234323094 558.3163091692095 1705.9087234323094 564.5641840741177L1705.9087234323094 564.5641840741177Q1705.9087234323094 577.4169553070717 1693.2344629109243 589.3516714519576L1693.2344629109243 589.3516714519576Q1671.9406851737883 601.8474212617741 1666.2283424035863 601.8474212617741L1666.2283424035863 601.8474212617741Q1665.69281026888 601.8474212617741 1665.310287315518 601.6689105502053L1665.310287315518 601.6689105502053Q1658.348369564335 601.6689105502053 1655.492198179234 597.0786351098645Q1652.6615283243573 592.4883596695238 1651.9219839478578 585.5009403881163L1651.9219839478578 585.5009403881163Q1648.2497635955854 592.2843474277308 1641.8233779791083 597.1551397005369Q1635.3969923626314 602.0259319733428 1627.1344965700182 602.0259319733428L1627.1344965700182 602.0259319733428Q1612.6241258724967 602.0259319733428 1604.8206576239172 596.5176014449339Q1597.0171893753381 591.0092709165251 1597.0171893753381 580.1711205712761L1597.0171893753381 580.1711205712761Q1597.0171893753381 575.4023344193668 1598.3942720074406 571.3730926439565Q1599.7713546395426 567.3183493383222 1602.8825413268846 561.4529973867757L1602.8825413268846 561.4529973867757L1608.2123611437246 516.2897873598679Q1613.8992023837022 511.878022631096 1624.5588420173824 511.878022631096L1624.5588420173824 511.878022631096Q1632.9998485215647 511.878022631096 1634.0964143212016 522.8946836879137L1634.0964143212016 522.8946836879137Q1635.0144694092696 531.8967238570264 1633.2803653540298 538.9606477291062Q1631.5462612987901 546.0245716011862 1628.5880837927925 556.7607158255386Q1625.6554078170193 567.496860049891 1625.6554078170193 575.7593558425043L1625.6554078170193 575.7593558425043Q1625.6554078170193 582.3897537007742 1633.9179036096325 582.3897537007742L1633.9179036096325 582.3897537007742Q1642.9199437787452 582.3897537007742 1649.524840106791 566.5788049618229L1649.524840106791 566.5788049618229Q1654.6761492120625 554.4655781053682 1656.5122593881988 539.5981859847091L1656.5122593881988 539.5981859847091Q1656.33374867663 538.1190972317104 1656.2317425557335 535.8239595115401Q1656.129736434837 533.5288217913696 1656.0532318441647 531.3356901920959Q1655.9512257232682 529.1425585928218 1655.9512257232682 526.9239254633239L1655.9512257232682 526.9239254633239ZM1739.494238737469 581.0891756593444L1739.494238737469 581.0891756593444Q1753.8260987234216 581.0891756593444 1767.2144020910823 569.715493179389L1767.2144020910823 569.715493179389Q1772.1872004847846 565.4822391621859 1775.2983871721267 561.9120249308098Q1778.4350753896929 558.3163091692095 1780.067173324036 558.3163091692095L1780.067173324036 558.3163091692095Q1782.642827876672 558.3163091692095 1782.642827876672 563.4676182744809Q1782.642827876672 568.618927379752 1779.8886626124672 574.9433068753326Q1777.1344973482628 581.2676863709132 1770.7081117317862 587.3370505642525L1770.7081117317862 587.3370505642525Q1754.9226645230588 602.2044426849116 1727.3810118810143 602.2044426849116L1727.3810118810143 602.2044426849116Q1705.5262004789479 602.2044426849116 1697.646227639696 586.4189954761844L1697.646227639696 586.4189954761844Q1694.8920623754918 580.9106649477756 1694.8920623754918 570.6335482674572Q1694.8920623754918 560.3564315871388 1698.921304150902 549.2377644094246Q1702.9505459263123 538.1190972317104 1709.6574483752547 530.0606136808901Q1716.3643508241967 521.9766285998455 1725.1878802817405 517.4628577501771Q1733.9859082090602 512.9745884307329 1744.0080095871376 512.9745884307329Q1754.0046094349905 512.9745884307329 1759.4109338425033 517.9218852942113Q1764.8427597802397 522.8946836879137 1764.8427597802397 530.7746565271652Q1764.8427597802397 538.680130896641 1760.8900225955017 543.7294338810157Q1756.9372854107637 548.7787368653906 1750.6894105058557 552.1704403851978Q1744.4670371311718 555.5621439050051 1736.842079594161 558.2398045785371Q1729.2171220571508 560.8919637218453 1721.8726813526055 564.2071626509801L1721.8726813526055 564.2071626509801L1721.8726813526055 568.7974380913208Q1722.0511920641743 575.4023344193668 1727.3810118810143 578.1564996835712Q1732.7108316978545 580.9106649477756 1739.494238737469 581.0891756593444ZM1736.383052050127 529.3210693043907L1736.383052050127 529.3210693043907Q1726.8199782160839 529.3210693043907 1723.1477578638114 551.532902129595L1723.1477578638114 551.532902129595Q1727.023990457877 548.9572475769594 1730.415693977684 546.9426266892542Q1733.8073974974914 544.9280058015491 1736.383052050127 543.0918956254129L1736.383052050127 543.0918956254129Q1741.891382578536 539.0371523197786 1742.0698932901048 533.9113447447314L1742.0698932901048 533.9113447447314Q1742.0698932901048 529.3210693043907 1736.383052050127 529.3210693043907ZM1776.3949529717638 549.6967919534586L1776.3949529717638 549.6967919534586Q1776.3949529717638 534.8293998327995 1801.5649633029652 534.8293998327995L1801.5649633029652 534.8293998327995L1830.560203167784 535.364931967506Q1832.778836297282 535.364931967506 1832.778836297282 537.583565097004L1832.778836297282 537.583565097004Q1832.778836297282 541.4342961608454 1828.1885608569414 546.8406205683577Q1823.598285416601 552.2724465060943 1820.4615971990347 552.2724465060943L1820.4615971990347 552.2724465060943L1804.1406178556008 550.9718684646645L1777.5170203016246 551.3543914180261Q1776.3949529717638 551.3543914180261 1776.3949529717638 549.6967919534586ZM1979.1066167232543 557.7807770345032L1979.1066167232543 557.7807770345032Q1982.2433049408205 557.7807770345032 1982.2433049408205 566.2217835386853L1982.2433049408205 566.2217835386853Q1982.2433049408205 570.812058979026 1978.3670723467553 577.3404507163993Q1974.5163412829138 583.8433409235488 1968.370472498902 589.2751668612852Q1962.2246037148902 594.6814912687977 1954.701652298776 598.1752009095014Q1947.1531993524382 601.6689105502053 1940.0127708896862 601.6689105502053L1940.0127708896862 601.6689105502053Q1929.174620544437 601.6689105502053 1925.0433726481306 596.2370846124686Q1920.9121247518237 590.8307602049563 1920.9121247518237 580.2731266921726Q1920.9121247518237 569.715493179389 1929.174620544437 544.009950713481L1929.174620544437 544.009950713481Q1903.8260995016667 542.9133849138441 1892.2739063101426 542.9133849138441L1892.2739063101426 542.9133849138441L1889.698251757507 542.9133849138441Q1886.383052828372 563.289107562912 1886.383052828372 585.6794510996851L1886.383052828372 585.6794510996851Q1886.383052828372 595.5995463568659 1878.8601014122578 599.2717667091383L1878.8601014122578 599.2717667091383Q1875.3663917715544 600.9293661737058 1872.1531989633158 602.3829533964804Q1868.9400061550773 603.8620421494791 1865.2677858028046 603.8620421494791L1865.2677858028046 603.8620421494791Q1856.0872349221231 603.8620421494791 1856.0872349221231 587.3370505642525Q1856.0872349221231 570.812058979026 1863.6101863382373 544.9280058015491L1863.6101863382373 544.9280058015491Q1855.551702787417 545.8460608896173 1849.3803324731812 546.7641159776854Q1843.2344636891694 547.6821710657537 1839.7407540484655 547.6821710657537Q1836.2725459379858 547.6821710657537 1836.2725459379858 545.8460608896173L1836.2725459379858 545.8460608896173Q1836.2725459379858 540.3377303612085 1845.2490845768743 534.6508891212308L1845.2490845768743 534.6508891212308Q1854.4296354575558 528.938546351029 1870.0365719547144 526.0058703752558L1870.0365719547144 526.0058703752558Q1887.3011079164403 482.1177368595537 1912.2671060058487 467.4288554504634L1912.2671060058487 467.4288554504634Q1921.4476568865302 461.92052492205454 1931.750275097073 461.92052492205454L1931.750275097073 461.92052492205454Q1950.1113768584355 462.12453716384744 1958.2718665301522 471.8406201792353Q1966.4323562018694 481.5822047248473 1966.5343623227654 497.64816876603976Q1966.6363684436624 513.7141328072323 1956.7162731864814 539.4196752731402L1956.7162731864814 539.4196752731402Q1953.0440528342087 549.3397705303211 1949.9073646166426 557.3982540811414Q1946.7961779293005 565.4822391621859 1946.7961779293005 570.4550375558883Q1946.7961779293005 575.4023344193668 1947.5357223058 577.9779889720023Q1948.2752666822994 580.5536435246379 1951.0294319465038 580.5536435246379L1951.0294319465038 580.5536435246379Q1955.976728809982 580.5536435246379 1974.337830571345 561.4529973867757L1974.337830571345 561.4529973867757Q1977.65302950048 557.7807770345032 1979.1066167232543 557.7807770345032ZM1940.0127708896862 503.05449317355215L1940.0127708896862 503.05449317355215Q1940.0127708896862 487.0905352532561 1928.0780547448003 487.0905352532561L1928.0780547448003 487.0905352532561Q1915.9393263581214 487.0905352532561 1907.217803021474 497.26564581267803Q1898.4962796848267 507.4662579023241 1893.7274935329174 524.5522831524812L1893.7274935329174 524.5522831524812L1935.4224954493452 525.0878152871876Q1940.0127708896862 510.3989338780973 1940.0127708896862 503.05449317355215ZM2085.779517650728 557.7807770345032L2085.779517650728 557.7807770345032Q2089.094716579863 557.7807770345032 2089.094716579863 566.2217835386853L2089.094716579863 566.2217835386853Q2089.094716579863 570.812058979026 2085.2439855160214 577.3404507163993Q2081.39325445218 583.8433409235488 2075.2218841379445 589.2751668612852Q2069.0760153539327 594.6814912687977 2061.5530639378185 598.1752009095014Q2054.0301125217047 601.6689105502053 2046.8641825287282 601.6689105502053L2046.8641825287282 601.6689105502053Q2036.7655765599789 601.6689105502053 2033.6543898726368 585.1439189649786L2033.6543898726368 585.1439189649786Q2022.6377288158192 602.5869656382733 2000.9614281253212 602.5869656382733L2000.9614281253212 602.5869656382733Q1987.7516354692293 602.5869656382733 1979.8461610997538 594.502980557229Q1971.9406867302782 586.4189954761844 1972.1446989720712 574.8413007544361L1972.1446989720712 574.8413007544361Q1972.1446989720712 543.6274277601192 1992.8774430442768 525.6488489521182L1992.8774430442768 525.6488489521182Q2007.2093030302294 513.3316098538705 2022.6377288158192 513.3316098538705L2022.6377288158192 513.3316098538705Q2029.5996465670023 513.3316098538705 2033.6543898726368 514.4536771837315L2033.6543898726368 514.4536771837315L2037.8621423596155 515.5502429833687Q2045.3850937757297 480.1031159718486 2055.30518903291 468.16839982696274L2055.30518903291 468.16839982696274Q2058.6203879620452 464.13915805155256 2061.910085360956 464.13915805155256L2061.910085360956 464.13915805155256Q2067.239905177796 464.13915805155256 2071.8301806181366 471.4835987560977L2071.8301806181366 471.4835987560977Q2075.884923923771 477.52746141921295 2075.884923923771 481.93922614798487Q2075.884923923771 486.3509908767568 2074.584345882341 490.5842448939599Q2073.3092693711355 494.7919973809389 2071.371153074103 498.3877131425391Q2069.458538307294 501.9579273739152 2067.0613944662277 505.3496308937225Q2064.6642506251605 508.74133441352984 2062.292608314318 512.2350440542336L2062.292608314318 512.2350440542336Q2056.962788497478 532.0752345685951 2054.3871339448424 556.6842112348662L2054.3871339448424 556.6842112348662Q2053.647589568343 563.6461289860497 2053.647589568343 567.8793830032528L2053.647589568343 567.8793830032528Q2053.647589568343 580.5536435246379 2057.880843585546 580.5536435246379L2057.880843585546 580.5536435246379Q2062.6496297374556 580.5536435246379 2081.010731498818 561.4529973867757L2081.010731498818 561.4529973867757Q2084.3259304279536 557.7807770345032 2085.779517650728 557.7807770345032ZM1999.125317949185 568.7974380913208L1999.125317949185 568.7974380913208Q1999.125317949185 582.9252858354806 2009.580945341072 582.9252858354806L2009.580945341072 582.9252858354806Q2015.8288202459803 582.9252858354806 2022.1787012717846 578.1564996835712Q2028.5030807673656 573.3877135316616 2031.996790408069 562.1925417632751L2031.996790408069 562.1925417632751Q2032.3538118312067 545.6675501780485 2035.8475214719106 525.8273596636869L2035.8475214719106 525.8273596636869Q2021.1586400628203 528.7600356394602 2010.1419790060027 540.1592196496397Q1999.125317949185 551.532902129595 1999.125317949185 568.7974380913208ZM2180.54320396354 545.2850272246867L2180.54320396354 545.2850272246867Q2180.54320396354 539.2411645615714 2173.555784682132 539.2411645615714L2173.555784682132 539.2411645615714Q2168.7869985302227 539.2411645615714 2162.896145048452 548.4982200329252Q2157.0307930969057 557.7807770345032 2154.45513854427 568.4149151379592L2154.45513854427 568.4149151379592L2154.45513854427 568.7974380913208Q2154.45513854427 575.0453129962291 2156.3932548413027 581.6502093242748Q2158.305869608111 588.2551056523207 2158.305869608111 590.8307602049563L2158.305869608111 590.8307602049563Q2158.305869608111 597.0786351098645 2142.698933110953 603.1224977729798L2142.698933110953 603.1224977729798Q2140.32729080011 604.0405528610479 2138.491180623974 604.0405528610479L2138.491180623974 604.0405528610479Q2133.900905183633 604.0405528610479 2132.141299598169 599.2717667091383Q2130.4071955429295 594.502980557229 2130.4071955429295 586.3169893552879Q2130.4071955429295 578.1564996835712 2130.8662230869636 570.9140650999225Q2131.3252506309973 563.6461289860497 2131.7842781750314 557.5002602020379Q2132.2433057190656 551.3543914180261 2132.7023332630997 546.6621098567889Q2133.161360807134 541.9953298257759 2133.161360807134 539.0371523197786L2133.161360807134 539.0371523197786Q2133.161360807134 532.8147789450945 2127.474519567156 532.8147789450945Q2121.787678327178 532.8147789450945 2114.2392253808403 546.1265777220826Q2106.7162739647265 559.4383764990706 2106.7162739647265 567.2418447476498Q2106.7162739647265 575.0453129962291 2108.654390261759 581.6502093242748Q2110.5670050285676 588.2551056523207 2110.5670050285676 590.8307602049563L2110.5670050285676 590.8307602049563Q2110.5670050285676 597.0786351098645 2094.9600685314094 603.1224977729798L2094.9600685314094 603.1224977729798Q2092.588426220567 604.0405528610479 2090.7523160444302 604.0405528610479L2090.7523160444302 604.0405528610479Q2086.1620406040897 604.0405528610479 2084.4024350186255 599.2717667091383Q2082.668330963386 594.502980557229 2082.668330963386 584.582885300048L2082.668330963386 584.582885300048Q2082.668330963386 558.5203214110024 2084.682951851091 546.9426266892542L2084.682951851091 546.9426266892542Q2087.437117115295 529.8566014390972 2097.1787016609073 514.6321878953004L2097.1787016609073 514.6321878953004Q2100.4683990598182 509.4808787900292 2104.3446316538834 509.4808787900292L2104.3446316538834 509.4808787900292Q2110.3884943169987 509.4808787900292 2115.5398034222703 519.40097404721L2115.5398034222703 519.40097404721Q2116.9933906450447 521.9766285998455 2117.7329350215437 524.1697601991195L2117.7329350215437 524.1697601991195Q2126.556464479088 513.1530991423017 2138.491180623974 513.1530991423017L2138.491180623974 513.1530991423017Q2146.3711534632253 513.1530991423017 2152.6190283681335 518.3809128382454Q2158.8669032730418 523.634228064413 2158.8669032730418 531.5142009036647L2158.8669032730418 531.5142009036647L2158.8669032730418 533.5288217913696Q2170.062075041428 519.5794847587788 2186.230045203517 519.5794847587788L2186.230045203517 519.5794847587788Q2196.150140460698 519.5794847587788 2201.2759480357454 524.7307938640499Q2206.4272571410165 529.8566014390972 2206.4272571410165 537.4050543854352Q2206.4272571410165 544.9280058015491 2205.3306913413794 550.9718684646645Q2204.2086240115186 557.0412326580038 2202.831541379416 562.3710524748439Q2201.4544587473138 567.7008722916839 2200.357892947677 571.8321201879905Q2199.26132714804 575.9633680842971 2199.26132714804 578.2585058044676Q2199.26132714804 580.5536435246379 2200.7404159010384 580.5536435246379L2200.7404159010384 580.5536435246379Q2203.4945811652433 580.5536435246379 2207.523822940653 577.0599338839341Q2211.5530647160635 573.5662242432304 2215.607808021698 569.4349763469238Q2219.637049797108 565.3037284506171 2223.0287533169153 561.8100188099133Q2226.445958366947 558.3163091692095 2227.7210348781528 558.3163091692095L2227.7210348781528 558.3163091692095Q2230.2966894307883 558.3163091692095 2230.2966894307883 564.5641840741177L2230.2966894307883 564.5641840741177Q2230.2966894307883 577.4169553070717 2217.3419120769377 589.5301821635264Q2204.412636253311 601.6689105502053 2189.723754844221 601.6689105502053L2189.723754844221 601.6689105502053Q2176.4884606579053 601.6689105502053 2176.4884606579053 577.5954660186405L2176.4884606579053 577.5954660186405Q2176.4884606579053 571.5516033555252 2178.5030815456103 560.8919637218453Q2180.54320396354 550.2578256183892 2180.54320396354 545.2850272246867ZM2243.149460663742 601.6689105502053L2243.149460663742 601.6689105502053Q2224.788358902379 601.6689105502053 2224.788358902379 567.3183493383222L2224.788358902379 567.3183493383222Q2224.788358902379 548.6002261538217 2229.37863434272 533.3503110798009L2229.37863434272 533.3503110798009Q2236.544564335696 509.8634017433909 2245.5211029745847 509.8634017433909L2245.5211029745847 509.8634017433909Q2250.850922791425 509.8634017433909 2253.987611008991 517.0038302061432L2253.987611008991 517.0038302061432Q2256.5377640314023 522.512160734552 2256.3592533198334 527.841980551392L2256.3592533198334 527.841980551392Q2256.3592533198334 535.1864212559371 2251.9474885910618 553.7260337288689L2251.9474885910618 553.7260337288689Q2247.7397361040826 569.8940038909578 2247.7397361040826 573.7447349547992Q2247.7397361040826 577.5954660186405 2249.6523508708915 579.0745547716392Q2251.590467167924 580.5536435246379 2254.2426263112325 580.5536435246379Q2256.920286984764 580.5536435246379 2260.9495287601744 577.0599338839341Q2265.0042720658084 573.5662242432304 2269.033513841219 569.4349763469238Q2273.062755616629 565.3037284506171 2276.47996066666 561.8100188099133Q2279.8716641864676 558.3163091692095 2281.1467406976735 558.3163091692095L2281.1467406976735 558.3163091692095Q2283.722395250309 558.3163091692095 2283.722395250309 564.5641840741177L2283.722395250309 564.5641840741177Q2283.722395250309 577.4169553070717 2270.767617896459 589.6321882844229Q2257.8383420728323 601.8474212617741 2243.149460663742 601.6689105502053ZM2250.6724120798563 494.9705080925077L2250.6724120798563 494.9705080925077Q2245.7251152163776 487.62606738796256 2245.7251152163776 479.18506088378047Q2245.7251152163776 470.74405437959837 2248.3772743596855 465.13371773029303Q2251.029433502994 459.54888261121187 2253.42657734406 456.87122193767976Q2255.8237211851274 454.2190627943718 2258.934907872469 454.2190627943718L2258.934907872469 454.2190627943718Q2264.0862169777406 454.2190627943718 2268.29396946472 461.8440203313822Q2272.5272234819226 469.4689778683926 2272.5272234819226 474.5947854434397L2272.5272234819226 474.5947854434397Q2272.5272234819226 484.1578592774829 2265.8203210329802 489.56418368499527Q2259.1134185840383 494.9705080925077 2250.6724120798563 494.9705080925077ZM2298.97231032433 509.4808787900292L2298.97231032433 509.4808787900292Q2305.577206652376 509.4808787900292 2311.4425586039224 522.1551393114144L2311.4425586039224 522.1551393114144Q2320.0875773498974 513.1530991423017 2332.8383424619547 513.1530991423017Q2345.5891075740124 513.1530991423017 2352.0154931904895 518.763435791607Q2358.4418788069665 524.3482709106883 2358.4418788069665 534.5488830003343Q2358.4418788069665 544.7494950899804 2355.789719663658 555.2051224818675Q2353.1375605203507 565.6607498737546 2351.938988599817 570.174520723423Q2350.7404166792835 574.6627900428673 2350.7404166792835 577.5954660186405Q2350.7404166792835 580.5536435246379 2352.755037566989 580.5536435246379L2352.755037566989 580.5536435246379Q2355.509202831193 580.5536435246379 2359.5639461368273 577.0599338839341Q2363.5931879122377 573.5662242432304 2367.6224296876476 569.4349763469238Q2371.677172993282 565.3037284506171 2375.0688765130894 561.8100188099133Q2378.460580032897 558.3163091692095 2379.7611580743264 558.3163091692095L2379.7611580743264 558.3163091692095Q2382.311311096738 558.3163091692095 2382.311311096738 564.5641840741177L2382.311311096738 564.5641840741177Q2382.311311096738 577.4169553070717 2369.662552105577 589.3516714519576L2369.662552105577 589.3516714519576Q2348.3432728382168 601.8474212617741 2342.4779208866707 601.8474212617741L2342.4779208866707 601.8474212617741Q2341.91688722174 601.8474212617741 2341.738376510171 601.6689105502053L2341.738376510171 601.6689105502053Q2327.0494951010805 601.6689105502053 2327.0494951010805 578.1564996835712L2327.0494951010805 578.1564996835712Q2327.0494951010805 568.0578937148216 2328.9876113981136 559.6168872106394Q2330.900226164922 551.1758807064573 2331.8182812529903 547.2996481123919Q2332.736336341058 543.4489170485505 2332.736336341058 539.4196752731402L2332.736336341058 539.4196752731402Q2332.736336341058 532.8147789450945 2325.136880334272 532.8147789450945Q2317.5119227972614 532.8147789450945 2310.6265096367506 544.0864553041533Q2303.7410964762394 555.3836331934363 2301.3439526351726 567.496860049891L2301.3439526351726 567.496860049891L2301.3439526351726 568.7974380913208Q2301.3439526351726 575.0453129962291 2303.2820689322057 581.6502093242748Q2305.194683699014 588.2551056523207 2305.194683699014 590.8307602049563L2305.194683699014 590.8307602049563Q2305.194683699014 597.0786351098645 2289.5877472018556 603.1224977729798L2289.5877472018556 603.1224977729798Q2287.216104891013 604.0405528610479 2285.3799947148764 604.0405528610479L2285.3799947148764 604.0405528610479Q2280.789719274536 604.0405528610479 2279.0301136890716 599.2717667091383Q2277.296009633832 594.502980557229 2277.296009633832 584.4043745884793L2277.296009633832 584.4043745884793Q2277.296009633832 558.3163091692095 2279.310630521537 546.7641159776854L2279.310630521537 546.7641159776854Q2282.064795785742 529.4995800159595 2291.806380331354 514.6321878953004L2291.806380331354 514.6321878953004Q2295.0960777302644 509.4808787900292 2298.97231032433 509.4808787900292Z " fill="#ffffff" transform="matrix(0.367290354862024,0,0,0.367290354862024,0,105.62293288571836)"/></g></svg>